<?xml version="1.0" encoding="utf-8"?>
<!-- Svg Vector Icons : http://www.onlinewebfonts.com/icon -->
<!DOCTYPE svg PUBLIC "-//W3C//DTD SVG 1.1//EN" "http://www.w3.org/Graphics/SVG/1.1/DTD/svg11.dtd">
<svg version="1.1" xmlns="http://www.w3.org/2000/svg" xmlns:xlink="http://www.w3.org/1999/xlink" x="0px" y="0px"
     viewBox="0 0 256 256" enable-background="new 0 0 256 256" xml:space="preserve">
<metadata> Svg Vector Icons : http://www.onlinewebfonts.com/icon </metadata>
    <g><g><g><path fill="#EBE5C2" d="M68.9,12.6c0,0.2,2.9,1.7,6.5,3.3l6.5,3l9.1,0.5l9.1,0.5l2,2l2,1.9l1.8-3.3c1-1.8,2.3-4.2,2.9-5.4c0.6-1.1,1.2-2.2,1.2-2.5c0-0.4-6.2-0.5-20.5-0.5C78.2,12.2,68.9,12.3,68.9,12.6z"/><path
            fill="#EBE5C2"
            d="M20.2,21.3c-4.5,0.7-8,3.5-9.5,7.6c-0.9,2.6-1,203.8-0.1,206.9c0.8,2.7,4.8,6.7,7.4,7.4c1.5,0.4,25.2,0.6,103.8,0.6h101.8l2.4-1.2c2.9-1.4,4.7-3.2,6-6.1c1-2.1,1-2.9,1-51.9V135l-7-13.5c-3.9-7.4-6.9-13.6-6.8-13.7c0.1-0.1,3.2,0.7,6.9,1.7l6.7,1.9l0.1-40.1c0-25.6,0-40.7-0.4-41.8c-0.8-2.8-3.1-5.6-5.9-7c-2.5-1.3-2.9-1.4-11.5-1.5l-8.9-0.2l-12.3,13.7c-6.8,7.5-12.6,14.1-13.1,14.6c-0.8,1-0.6,1.4,3.8,8.3c5.4,8.6,6.4,10.4,5.4,9.6c-2.8-2.2-10.2-7.5-10.3-7.3c-0.1,0.1,1.4,7.6,3.2,16.7l3.4,16.6l7,11.6c3.8,6.3,7.2,12,7.5,12.6c0.3,0.6-3.2-2.6-7.8-7c-4.6-4.5-8.5-8-8.7-7.7c-0.2,0.2-9.2,12.5-20,27.3l-19.6,27l0.8,7c0.4,3.9,0.8,7.4,0.8,7.8c0,0.4-1.7-2.4-3.9-6.3c-2.1-3.9-4.1-7.2-4.3-7.4c-0.4-0.4-5.6,1.7-31.7,13.2c-4.9,2.1-8.8,3.8-8.8,3.7c0,0,9.4-5.3,20.8-11.6l20.8-11.5l19.2-25.3c10.5-13.9,19.2-25.8,19.4-26.3c0.2-1.1-1.3-17.7-1.6-18c-0.1-0.1-4.4,2.4-9.5,5.6s-9.8,6-10.5,6.4s3.3-3.8,8.9-9.2l10.1-9.9l-2.4-12.9c-1.3-7.1-2.4-13.5-2.6-14.1c-0.3-1.1-0.3-1.1-4.2-0.8c-2.1,0.2-6.7,0.7-10,1.2l-6.1,0.8L140,59.8L130.4,71l-1.5,13.2c-2.3,19.4-2.4,19.4-2.1,2l0.2-16l-7.2-0.1l-7.2-0.1l7.8-2.6l7.7-2.5l7-8.8c3.8-4.8,7.1-9,7.3-9.3c0.2-0.3-2.8-1.3-8.8-2.9c-5-1.3-9.1-2.4-9-2.5c0.1-0.1,4.6,0.2,10.1,0.7l9.9,0.9l4.3-3.2l4.4-3.1l7.1-0.3c3.9-0.1,8.9-0.4,11.1-0.6l4-0.3l5.9-6.7c3.3-3.7,6-6.9,6.1-7.1c0.1-0.3-13.4-0.5-38.7-0.5H110l-1.4,2.5c-0.8,1.4-2.2,4.1-3.2,5.9l-1.8,3.3l-2-1.9l-2-2l-9.1-0.5l-9.2-0.6l-7.2-3.3l-7.2-3.3l-22.2,0C32.4,21,21.4,21.2,20.2,21.3z"/><path
            fill="#EBE5C2"
            d="M238.1,129.3c3.4,6.6,6.6,12.6,7,13.4c0.9,1.4,0.9,1.3,0.8-10.1l-0.1-11.5l-6.5-1.8c-3.6-1-6.7-1.8-6.9-1.9C232.2,117.4,234.8,122.7,238.1,129.3z"/></g></g></g>
</svg>